ffmpeg started on 2026-01-05 at 13:35:23
Report written to "D:\Convert\FFMetrics\reports\ssim_report-6.txt"
Log level: 32
Command line:
ffmpeg -hide_banner -nostdin -r 24000/1001 -i "F:\\Convert\\files\\JamClub_Ore_dake_Level_Up_na_Ken_Season_2_13_1080p_HEVC(57).mkv" -r 24000/1001 -i "F:\\Convert\\files\\JamClub_Ore_dake_Level_Up_na_Ken_Season_2_13_1080p.mp4" -lavfi "[0:v]settb=AVTB,setpts=PTS-STARTPTS,format=pix_fmts=yuv420p10le,fps=24000/1001,scale=1920:1080:flags=bicubic[main];[1:v]settb=AVTB,setpts=PTS-STARTPTS,format=pix_fmts=yuv420p,fps=24000/1001,scale=1920:1080:flags=bicubic[ref];[main][ref]ssim=eof_action=endall:stats_file='D\\:/Convert/FFMetrics/logs/ssim_logfile-6.txt'" -f null -
Input #0, matroska,webm, from 'F:\Convert\files\JamClub_Ore_dake_Level_Up_na_Ken_Season_2_13_1080p_HEVC(57).mkv':
  Metadata:
    COMPATIBLE_BRANDS: isomiso2avc1mp41
    MAJOR_BRAND     : isom
    MINOR_VERSION   : 512
    ENCODER         : Lavf61.7.100
  Duration: 00:24:02.33, start: -0.001000, bitrate: 1905 kb/s
  Stream #0:0: Video: hevc (Main 10), yuv420p10le(tv, bt709, progressive), 1920x1080 [SAR 1:1 DAR 16:9], 23.98 fps, 23.98 tbr, 1k tbn (default)
      Metadata:
        HANDLER_NAME    : VideoHandler
        VENDOR_ID       : [0][0][0][0]
        ENCODER         : Lavc61.19.100 libx265
        BPS             : 1706754
        DURATION        : 00:24:02.232708333
        NUMBER_OF_FRAMES: 34579
        NUMBER_OF_BYTES : 307691921
        _STATISTICS_WRITING_APP: mkvpropedit v94.0 ('Initiate') 64-bit
        _STATISTICS_WRITING_DATE_UTC: 2026-01-04 16:18:56
        _STATISTICS_TAGS: BPS DURATION NUMBER_OF_FRAMES NUMBER_OF_BYTES
  Stream #0:1(eng): Audio: aac (LC), 48000 Hz, stereo, fltp (default)
      Metadata:
        HANDLER_NAME    : SoundHandler
        VENDOR_ID       : [0][0][0][0]
        ENCODER         : Lavc61.19.100 aac
        BPS             : 194704
        DURATION        : 00:24:02.285000000
        NUMBER_OF_FRAMES: 67608
        NUMBER_OF_BYTES : 35102363
        _STATISTICS_WRITING_APP: mkvpropedit v94.0 ('Initiate') 64-bit
        _STATISTICS_WRITING_DATE_UTC: 2026-01-04 16:18:56
        _STATISTICS_TAGS: BPS DURATION NUMBER_OF_FRAMES NUMBER_OF_BYTES
Input #1, mov,mp4,m4a,3gp,3g2,mj2, from 'F:\Convert\files\JamClub_Ore_dake_Level_Up_na_Ken_Season_2_13_1080p.mp4':
  Metadata:
    major_brand     : isom
    minor_version   : 512
    compatible_brands: isomiso2avc1mp41
    encoder         : Lavf60.16.100
  Duration: 00:24:02.31, start: 0.000000, bitrate: 5143 kb/s
  Stream #1:0[0x1](und): Video: h264 (High) (avc1 / 0x31637661), yuv420p(progressive), 1920x1080 [SAR 1:1 DAR 16:9], 4945 kb/s, 23.98 fps, 23.98 tbr, 90k tbn (default)
      Metadata:
        handler_name    : VideoHandler
        vendor_id       : [0][0][0][0]
  Stream #1:1[0x2](eng): Audio: aac (LC) (mp4a / 0x6134706D), 48000 Hz, stereo, fltp, 191 kb/s (default)
      Metadata:
        handler_name    : SoundHandler
        vendor_id       : [0][0][0][0]
Stream mapping:
  Stream #0:0 (hevc) -> settb:default
  Stream #1:0 (h264) -> settb:default
  ssim:default -> Stream #0:0 (wrapped_avframe)
  Stream #0:1 -> #0:1 (aac (native) -> pcm_s16le (native))
Output #0, null, to 'pipe:':
  Metadata:
    COMPATIBLE_BRANDS: isomiso2avc1mp41
    MAJOR_BRAND     : isom
    MINOR_VERSION   : 512
    encoder         : Lavf61.7.100
  Stream #0:0: Video: wrapped_avframe, yuv420p10le(tv, bt709, progressive), 1920x1080 [SAR 1:1 DAR 16:9], q=2-31, 200 kb/s, 23.98 fps, 23.98 tbn
      Metadata:
        encoder         : Lavc61.19.100 wrapped_avframe
  Stream #0:1(eng): Audio: pcm_s16le, 48000 Hz, stereo, s16, 1536 kb/s (default)
      Metadata:
        HANDLER_NAME    : SoundHandler
        VENDOR_ID       : [0][0][0][0]
        _STATISTICS_TAGS: BPS DURATION NUMBER_OF_FRAMES NUMBER_OF_BYTES
        BPS             : 194704
        DURATION        : 00:24:02.285000000
        NUMBER_OF_FRAMES: 67608
        NUMBER_OF_BYTES : 35102363
        _STATISTICS_WRITING_APP: mkvpropedit v94.0 ('Initiate') 64-bit
        _STATISTICS_WRITING_DATE_UTC: 2026-01-04 16:18:56
        encoder         : Lavc61.19.100 pcm_s16le
frame=  110 fps=0.0 q=-0.0 size=N/A time=00:00:04.58 bitrate=N/A speed=8.89x    frame=  265 fps=258 q=-0.0 size=N/A time=00:00:11.05 bitrate=N/A speed=10.8x    frame=  446 fps=291 q=-0.0 size=N/A time=00:00:18.60 bitrate=N/A speed=12.1x    frame=  683 fps=331 q=-0.0 size=N/A time=00:00:28.48 bitrate=N/A speed=13.8x    frame=  915 fps=356 q=-0.0 size=N/A time=00:00:38.16 bitrate=N/A speed=14.9x    frame= 1153 fps=373 q=-0.0 size=N/A time=00:00:48.08 bitrate=N/A speed=15.6x    frame= 1368 fps=380 q=-0.0 size=N/A time=00:00:57.05 bitrate=N/A speed=15.9x    frame= 1624 fps=394 q=-0.0 size=N/A time=00:01:07.73 bitrate=N/A speed=16.5x    frame= 1829 fps=394 q=-0.0 size=N/A time=00:01:16.28 bitrate=N/A speed=16.4x    frame= 2023 fps=393 q=-0.0 size=N/A time=00:01:24.37 bitrate=N/A speed=16.4x    frame= 2217 fps=391 q=-0.0 size=N/A time=00:01:32.46 bitrate=N/A speed=16.3x    frame= 2417 fps=391 q=-0.0 size=N/A time=00:01:40.80 bitrate=N/A speed=16.3x    frame= 2626 fps=392 q=-0.0 size=N/A time=00:01:49.52 bitrate=N/A speed=16.3x    frame= 2803 fps=389 q=-0.0 size=N/A time=00:01:56.90 bitrate=N/A speed=16.2x    frame= 2962 fps=384 q=-0.0 size=N/A time=00:02:03.54 bitrate=N/A speed=  16x    frame= 3128 fps=380 q=-0.0 size=N/A time=00:02:10.46 bitrate=N/A speed=15.8x    frame= 3333 fps=381 q=-0.0 size=N/A time=00:02:19.01 bitrate=N/A speed=15.9x    frame= 3483 fps=376 q=-0.0 size=N/A time=00:02:25.27 bitrate=N/A speed=15.7x    frame= 3660 fps=373 q=-0.0 size=N/A time=00:02:32.65 bitrate=N/A speed=15.6x    frame= 3809 fps=369 q=-0.0 size=N/A time=00:02:38.86 bitrate=N/A speed=15.4x    frame= 3997 fps=369 q=-0.0 size=N/A time=00:02:46.70 bitrate=N/A speed=15.4x    frame= 4232 fps=373 q=-0.0 size=N/A time=00:02:56.50 bitrate=N/A speed=15.5x    frame= 4499 fps=379 q=-0.0 size=N/A time=00:03:07.64 bitrate=N/A speed=15.8x    frame= 4768 fps=385 q=-0.0 size=N/A time=00:03:18.86 bitrate=N/A speed=16.1x    frame= 4991 fps=387 q=-0.0 size=N/A time=00:03:28.16 bitrate=N/A speed=16.1x    frame= 5236 fps=390 q=-0.0 size=N/A time=00:03:38.38 bitrate=N/A speed=16.3x    frame= 5437 fps=390 q=-0.0 size=N/A time=00:03:46.76 bitrate=N/A speed=16.3x    frame= 5615 fps=389 q=-0.0 size=N/A time=00:03:54.19 bitrate=N/A speed=16.2x    frame= 5827 fps=389 q=-0.0 size=N/A time=00:04:03.03 bitrate=N/A speed=16.2x    frame= 6074 fps=392 q=-0.0 size=N/A time=00:04:13.33 bitrate=N/A speed=16.4x    frame= 6325 fps=395 q=-0.0 size=N/A time=00:04:23.80 bitrate=N/A speed=16.5x    frame= 6586 fps=399 q=-0.0 size=N/A time=00:04:34.69 bitrate=N/A speed=16.6x    frame= 6834 fps=401 q=-0.0 size=N/A time=00:04:45.03 bitrate=N/A speed=16.7x    frame= 7078 fps=403 q=-0.0 size=N/A time=00:04:55.21 bitrate=N/A speed=16.8x    frame= 7297 fps=404 q=-0.0 size=N/A time=00:05:04.34 bitrate=N/A speed=16.8x    frame= 7527 fps=405 q=-0.0 size=N/A time=00:05:13.93 bitrate=N/A speed=16.9x    frame= 7761 fps=406 q=-0.0 size=N/A time=00:05:23.69 bitrate=N/A speed=16.9x    frame= 8022 fps=409 q=-0.0 size=N/A time=00:05:34.58 bitrate=N/A speed=17.1x    frame= 8262 fps=410 q=-0.0 size=N/A time=00:05:44.59 bitrate=N/A speed=17.1x    frame= 8545 fps=414 q=-0.0 size=N/A time=00:05:56.39 bitrate=N/A speed=17.2x    frame= 8817 fps=416 q=-0.0 size=N/A time=00:06:07.74 bitrate=N/A speed=17.4x    frame= 9064 fps=418 q=-0.0 size=N/A time=00:06:18.04 bitrate=N/A speed=17.4x    frame= 9279 fps=418 q=-0.0 size=N/A time=00:06:27.01 bitrate=N/A speed=17.4x    frame= 9500 fps=418 q=-0.0 size=N/A time=00:06:36.22 bitrate=N/A speed=17.4x    frame= 9753 fps=420 q=-0.0 size=N/A time=00:06:46.78 bitrate=N/A speed=17.5x    frame= 9984 fps=420 q=-0.0 size=N/A time=00:06:56.41 bitrate=N/A speed=17.5x    frame=10235 fps=422 q=-0.0 size=N/A time=00:07:06.88 bitrate=N/A speed=17.6x    frame=10480 fps=423 q=-0.0 size=N/A time=00:07:17.10 bitrate=N/A speed=17.6x    frame=10736 fps=424 q=-0.0 size=N/A time=00:07:27.78 bitrate=N/A speed=17.7x    frame=10942 fps=424 q=-0.0 size=N/A time=00:07:36.37 bitrate=N/A speed=17.7x    frame=11142 fps=423 q=-0.0 size=N/A time=00:07:44.71 bitrate=N/A speed=17.6x    frame=11339 fps=422 q=-0.0 size=N/A time=00:07:52.93 bitrate=N/A speed=17.6x    frame=11571 fps=423 q=-0.0 size=N/A time=00:08:02.60 bitrate=N/A speed=17.6x    frame=11752 fps=422 q=-0.0 size=N/A time=00:08:10.15 bitrate=N/A speed=17.6x    frame=11946 fps=421 q=-0.0 size=N/A time=00:08:18.24 bitrate=N/A speed=17.5x    frame=12167 fps=421 q=-0.0 size=N/A time=00:08:27.46 bitrate=N/A speed=17.6x    frame=12408 fps=422 q=-0.0 size=N/A time=00:08:37.51 bitrate=N/A speed=17.6x    frame=12620 fps=421 q=-0.0 size=N/A time=00:08:46.35 bitrate=N/A speed=17.6x    frame=12832 fps=421 q=-0.0 size=N/A time=00:08:55.20 bitrate=N/A speed=17.6x    frame=13029 fps=421 q=-0.0 size=N/A time=00:09:03.41 bitrate=N/A speed=17.5x    frame=13230 fps=420 q=-0.0 size=N/A time=00:09:11.80 bitrate=N/A speed=17.5x    frame=13414 fps=419 q=-0.0 size=N/A time=00:09:19.47 bitrate=N/A speed=17.5x    frame=13650 fps=420 q=-0.0 size=N/A time=00:09:29.31 bitrate=N/A speed=17.5x    frame=13898 fps=421 q=-0.0 size=N/A time=00:09:39.66 bitrate=N/A speed=17.5x    frame=14110 fps=420 q=-0.0 size=N/A time=00:09:48.50 bitrate=N/A speed=17.5x    frame=14357 fps=421 q=-0.0 size=N/A time=00:09:58.80 bitrate=N/A speed=17.6x    frame=14589 fps=422 q=-0.0 size=N/A time=00:10:08.48 bitrate=N/A speed=17.6x    frame=14834 fps=423 q=-0.0 size=N/A time=00:10:18.70 bitrate=N/A speed=17.6x    frame=15035 fps=422 q=-0.0 size=N/A time=00:10:27.08 bitrate=N/A speed=17.6x    frame=15253 fps=422 q=-0.0 size=N/A time=00:10:36.17 bitrate=N/A speed=17.6x    frame=15493 fps=423 q=-0.0 size=N/A time=00:10:46.18 bitrate=N/A speed=17.6x    frame=15711 fps=423 q=-0.0 size=N/A time=00:10:55.27 bitrate=N/A speed=17.6x    frame=15912 fps=422 q=-0.0 size=N/A time=00:11:03.66 bitrate=N/A speed=17.6x    frame=16138 fps=422 q=-0.0 size=N/A time=00:11:13.08 bitrate=N/A speed=17.6x    frame=16371 fps=423 q=-0.0 size=N/A time=00:11:22.80 bitrate=N/A speed=17.6x    frame=16605 fps=423 q=-0.0 size=N/A time=00:11:32.56 bitrate=N/A speed=17.7x    frame=16826 fps=423 q=-0.0 size=N/A time=00:11:41.82 bitrate=N/A speed=17.7x    frame=17060 fps=424 q=-0.0 size=N/A time=00:11:51.54 bitrate=N/A speed=17.7x    frame=17244 fps=423 q=-0.0 size=N/A time=00:11:59.21 bitrate=N/A speed=17.6x    frame=17456 fps=423 q=-0.0 size=N/A time=00:12:08.06 bitrate=N/A speed=17.6x    frame=17658 fps=422 q=-0.0 size=N/A time=00:12:16.48 bitrate=N/A speed=17.6x    frame=17856 fps=422 q=-0.0 size=N/A time=00:12:24.74 bitrate=N/A speed=17.6x    frame=18074 fps=422 q=-0.0 size=N/A time=00:12:33.83 bitrate=N/A speed=17.6x    frame=18323 fps=423 q=-0.0 size=N/A time=00:12:44.22 bitrate=N/A speed=17.6x    frame=18581 fps=423 q=-0.0 size=N/A time=00:12:54.98 bitrate=N/A speed=17.7x    frame=18844 fps=425 q=-0.0 size=N/A time=00:13:05.95 bitrate=N/A speed=17.7x    frame=19078 fps=425 q=-0.0 size=N/A time=00:13:15.71 bitrate=N/A speed=17.7x    frame=19279 fps=425 q=-0.0 size=N/A time=00:13:24.09 bitrate=N/A speed=17.7x    frame=19525 fps=425 q=-0.0 size=N/A time=00:13:34.35 bitrate=N/A speed=17.7x    frame=19719 fps=425 q=-0.0 size=N/A time=00:13:42.44 bitrate=N/A speed=17.7x    frame=19889 fps=424 q=-0.0 size=N/A time=00:13:49.53 bitrate=N/A speed=17.7x    frame=20117 fps=424 q=-0.0 size=N/A time=00:13:59.04 bitrate=N/A speed=17.7x    frame=20351 fps=424 q=-0.0 size=N/A time=00:14:08.80 bitrate=N/A speed=17.7x    frame=20525 fps=423 q=-0.0 size=N/A time=00:14:16.06 bitrate=N/A speed=17.6x    frame=20762 fps=423 q=-0.0 size=N/A time=00:14:25.94 bitrate=N/A speed=17.7x    frame=21001 fps=424 q=-0.0 size=N/A time=00:14:35.91 bitrate=N/A speed=17.7x    frame=21245 fps=424 q=-0.0 size=N/A time=00:14:46.09 bitrate=N/A speed=17.7x    frame=21495 fps=425 q=-0.0 size=N/A time=00:14:56.52 bitrate=N/A speed=17.7x    frame=21749 fps=426 q=-0.0 size=N/A time=00:15:07.11 bitrate=N/A speed=17.8x    frame=21963 fps=426 q=-0.0 size=N/A time=00:15:16.04 bitrate=N/A speed=17.8x    frame=22224 fps=426 q=-0.0 size=N/A time=00:15:26.92 bitrate=N/A speed=17.8x    frame=22485 fps=427 q=-0.0 size=N/A time=00:15:37.81 bitrate=N/A speed=17.8x    frame=22760 fps=428 q=-0.0 size=N/A time=00:15:49.28 bitrate=N/A speed=17.9x    frame=23003 fps=429 q=-0.0 size=N/A time=00:15:59.41 bitrate=N/A speed=17.9x    frame=23269 fps=429 q=-0.0 size=N/A time=00:16:10.51 bitrate=N/A speed=17.9x    frame=23530 fps=430 q=-0.0 size=N/A time=00:16:21.39 bitrate=N/A speed=17.9x    frame=23764 fps=430 q=-0.0 size=N/A time=00:16:31.15 bitrate=N/A speed=  18x    frame=24000 fps=431 q=-0.0 size=N/A time=00:16:41.00 bitrate=N/A speed=  18x    frame=24235 fps=431 q=-0.0 size=N/A time=00:16:50.80 bitrate=N/A speed=  18x    frame=24477 fps=431 q=-0.0 size=N/A time=00:17:00.89 bitrate=N/A speed=  18x    frame=24720 fps=432 q=-0.0 size=N/A time=00:17:11.03 bitrate=N/A speed=  18x    frame=24961 fps=432 q=-0.0 size=N/A time=00:17:21.08 bitrate=N/A speed=  18x    frame=25225 fps=433 q=-0.0 size=N/A time=00:17:32.09 bitrate=N/A speed=  18x    frame=25455 fps=433 q=-0.0 size=N/A time=00:17:41.68 bitrate=N/A speed=  18x    frame=25669 fps=433 q=-0.0 size=N/A time=00:17:50.61 bitrate=N/A speed=  18x    frame=25921 fps=433 q=-0.0 size=N/A time=00:18:01.12 bitrate=N/A speed=18.1x    frame=26156 fps=433 q=-0.0 size=N/A time=00:18:10.92 bitrate=N/A speed=18.1x    frame=26374 fps=433 q=-0.0 size=N/A time=00:18:20.01 bitrate=N/A speed=18.1x    frame=26596 fps=433 q=-0.0 size=N/A time=00:18:29.27 bitrate=N/A speed=18.1x    frame=26863 fps=434 q=-0.0 size=N/A time=00:18:40.41 bitrate=N/A speed=18.1x    frame=27111 fps=434 q=-0.0 size=N/A time=00:18:50.75 bitrate=N/A speed=18.1x    frame=27384 fps=435 q=-0.0 size=N/A time=00:19:02.14 bitrate=N/A speed=18.1x    frame=27650 fps=436 q=-0.0 size=N/A time=00:19:13.23 bitrate=N/A speed=18.2x    frame=27908 fps=436 q=-0.0 size=N/A time=00:19:23.99 bitrate=N/A speed=18.2x    frame=28142 fps=436 q=-0.0 size=N/A time=00:19:33.75 bitrate=N/A speed=18.2x    frame=28344 fps=436 q=-0.0 size=N/A time=00:19:42.18 bitrate=N/A speed=18.2x    frame=28582 fps=436 q=-0.0 size=N/A time=00:19:52.10 bitrate=N/A speed=18.2x    frame=28775 fps=436 q=-0.0 size=N/A time=00:20:00.19 bitrate=N/A speed=18.2x    frame=28980 fps=435 q=-0.0 size=N/A time=00:20:08.70 bitrate=N/A speed=18.2x    frame=29179 fps=435 q=-0.0 size=N/A time=00:20:17.00 bitrate=N/A speed=18.1x    frame=29380 fps=435 q=-0.0 size=N/A time=00:20:25.39 bitrate=N/A speed=18.1x    frame=29549 fps=434 q=-0.0 size=N/A time=00:20:32.43 bitrate=N/A speed=18.1x    frame=29710 fps=433 q=-0.0 size=N/A time=00:20:39.15 bitrate=N/A speed=18.1x    frame=29885 fps=432 q=-0.0 size=N/A time=00:20:46.45 bitrate=N/A speed=  18x    frame=30111 fps=432 q=-0.0 size=N/A time=00:20:55.87 bitrate=N/A speed=  18x    frame=30352 fps=433 q=-0.0 size=N/A time=00:21:05.93 bitrate=N/A speed=  18x    frame=30561 fps=432 q=-0.0 size=N/A time=00:21:14.64 bitrate=N/A speed=  18x    frame=30766 fps=432 q=-0.0 size=N/A time=00:21:23.19 bitrate=N/A speed=  18x    frame=30959 fps=432 q=-0.0 size=N/A time=00:21:31.24 bitrate=N/A speed=  18x    frame=31138 fps=431 q=-0.0 size=N/A time=00:21:38.71 bitrate=N/A speed=  18x    frame=31326 fps=431 q=-0.0 size=N/A time=00:21:46.55 bitrate=N/A speed=  18x    frame=31516 fps=430 q=-0.0 size=N/A time=00:21:54.47 bitrate=N/A speed=17.9x    frame=31775 fps=431 q=-0.0 size=N/A time=00:22:05.28 bitrate=N/A speed=  18x    frame=31958 fps=430 q=-0.0 size=N/A time=00:22:12.91 bitrate=N/A speed=17.9x    frame=32143 fps=430 q=-0.0 size=N/A time=00:22:20.63 bitrate=N/A speed=17.9x    frame=32305 fps=429 q=-0.0 size=N/A time=00:22:27.38 bitrate=N/A speed=17.9x    frame=32481 fps=428 q=-0.0 size=N/A time=00:22:34.72 bitrate=N/A speed=17.9x    frame=32660 fps=428 q=-0.0 size=N/A time=00:22:42.19 bitrate=N/A speed=17.8x    frame=32829 fps=427 q=-0.0 size=N/A time=00:22:49.24 bitrate=N/A speed=17.8x    frame=32968 fps=426 q=-0.0 size=N/A time=00:22:55.04 bitrate=N/A speed=17.8x    frame=33088 fps=425 q=-0.0 size=N/A time=00:23:00.04 bitrate=N/A speed=17.7x    frame=33218 fps=424 q=-0.0 size=N/A time=00:23:05.46 bitrate=N/A speed=17.7x    frame=33345 fps=422 q=-0.0 size=N/A time=00:23:10.76 bitrate=N/A speed=17.6x    frame=33479 fps=421 q=-0.0 size=N/A time=00:23:16.35 bitrate=N/A speed=17.6x    frame=33667 fps=421 q=-0.0 size=N/A time=00:23:24.19 bitrate=N/A speed=17.6x    frame=33797 fps=420 q=-0.0 size=N/A time=00:23:29.61 bitrate=N/A speed=17.5x    frame=33901 fps=419 q=-0.0 size=N/A time=00:23:33.95 bitrate=N/A speed=17.5x    frame=34047 fps=418 q=-0.0 size=N/A time=00:23:40.04 bitrate=N/A speed=17.4x    frame=34180 fps=417 q=-0.0 size=N/A time=00:23:45.59 bitrate=N/A speed=17.4x    frame=34345 fps=416 q=-0.0 size=N/A time=00:23:52.47 bitrate=N/A speed=17.4x    frame=34550 fps=416 q=-0.0 size=N/A time=00:24:01.02 bitrate=N/A speed=17.3x    [Parsed_ssim_10 @ 0000016a9bb8a940] SSIM Y:0.992948 (21.516813) U:0.993148 (21.642000) V:0.993260 (21.713357) All:0.993033 (21.569727)
[out#0/null @ 0000016a90027f00] video:14858KiB audio:270432KiB subtitle:0KiB other streams:0KiB global headers:0KiB muxing overhead: unknown
frame=34579 fps=416 q=-0.0 Lsize=N/A time=00:24:02.23 bitrate=N/A speed=17.4x    
